<svg xmlns="http://www.w3.org/2000/svg" viewBox="0 0 100 100" width="100" height="100">
  <!-- 圆形背景 -->
  <circle cx="50" cy="50" r="50" fill="#24292e" />
  
  <!-- GitHub 官方猫图标 -->
  <path d="M50 25C36.2 25 25 36.2 25 50c0 11 7.2 20.4 17.1 23.7c1.3 0.2 1.7-0.5 1.7-1.2c0-0.6 0-2.1 0-4.1c-7 1.5-8.4-3.4-8.4-3.4c-1.1-2.9-2.8-3.7-2.8-3.7c-2.3-1.6 0.2-1.5 0.2-1.5c2.5 0.2 3.8 2.6 3.8 2.6c2.2 3.8 5.9 2.7 7.3 2.1c0.2-1.6 0.9-2.7 1.6-3.3c-5.6-0.6-11.4-2.8-11.4-12.4c0-2.7 1-5 2.6-6.7c-0.3-0.6-1.1-3.1 0.2-6.5c0 0 2.1-0.7 6.9 2.6c2-0.6 4.1-0.8 6.3-0.8c2.1 0 4.3 0.3 6.3 0.8c4.8-3.2 6.9-2.6 6.9-2.6c1.4 3.4 0.5 5.9 0.2 6.5c1.6 1.7 2.6 4 2.6 6.7c0 9.6-5.9 11.8-11.5 12.4c0.9 0.8 1.7 2.3 1.7 4.6c0 3.3 0 6 0 6.8c0 0.7 0.5 1.4 1.7 1.2C67.8 70.4 75 61 75 50C75 36.2 63.8 25 50 25z" fill="white"/>
  
  <!-- RAW 图标（使用路径而非文本，最佳兼容性） -->
  <rect x="35" y="65" width="30" height="15" rx="4" fill="#2ea44f" />
  
  <!-- R 字母 -->
  <path d="M40 69.5 L40 77 M40 69.5 L45 69.5 C46.5 69.5 46.5 73 45 73 L40 73 M45 73 L47 77" stroke="white" stroke-width="1.5" stroke-linecap="round" stroke-linejoin="round" fill="none" />
  <!-- A 字母 -->
  <path d="M49 77 L51 69.5 L53 77 M49.5 74.5 L52.5 74.5" stroke="white" stroke-width="1.5" stroke-linecap="round" stroke-linejoin="round" fill="none" />
  <!-- W 字母 -->
  <path d="M55 69.5 L57 77 L58.5 73 L60 77 L62 69.5" stroke="white" stroke-width="1.5" stroke-linecap="round" stroke-linejoin="round" fill="none" />
</svg>